<?xml version="1.0" encoding="UTF-8" standalone="no"?>
<!-- Created with Inkscape (http://www.inkscape.org/) -->

<svg
   width="64"
   height="64"
   viewBox="0 0 16.933333 16.933333"
   version="1.1"
   id="svg5"
   inkscape:version="1.2.1 (9c6d41e410, 2022-07-14)"
   sodipodi:docname="eggicon.svg"
   xmlns:inkscape="http://www.inkscape.org/namespaces/inkscape"
   xmlns:sodipodi="http://sodipodi.sourceforge.net/DTD/sodipodi-0.dtd"
   xmlns="http://www.w3.org/2000/svg"
   xmlns:svg="http://www.w3.org/2000/svg">
  <sodipodi:namedview
     id="namedview7"
     pagecolor="#ffffff"
     bordercolor="#000000"
     borderopacity="0.25"
     inkscape:showpageshadow="2"
     inkscape:pageopacity="0.0"
     inkscape:pagecheckerboard="true"
     inkscape:deskcolor="#d1d1d1"
     inkscape:document-units="mm"
     showgrid="false"
     inkscape:zoom="8.8391522"
     inkscape:cx="20.703343"
     inkscape:cy="37.673296"
     inkscape:window-width="1920"
     inkscape:window-height="1057"
     inkscape:window-x="-8"
     inkscape:window-y="-8"
     inkscape:window-maximized="1"
     inkscape:current-layer="layer1">
    <inkscape:grid
       type="xygrid"
       id="grid132"
       spacingx="1.0583333"
       spacingy="1.0583333"
       empspacing="4" />
  </sodipodi:namedview>
  <defs
     id="defs2" />
  <g
     inkscape:label="Layer 1"
     inkscape:groupmode="layer"
     id="layer1">
    <path
       id="path238"
       style="fill:#ffffff;stroke-width:1.4;stroke-linejoin:round"
       d="M 8.4666667 0 C 6.8791683 0 4.9850616 2.3479555 3.6049479 6.35 C 1.1504354 13.467579 5.2916698 16.933333 8.4666667 16.933333 C 11.641663 16.933333 15.782898 13.467579 13.328385 6.35 C 11.948272 2.3479555 10.054165 0 8.4666667 0 z " />
    <g
       aria-label="fk"
       id="text501"
       style="font-size:10.0569px;letter-spacing:-0.661458px;stroke-width:1.10864;stroke-linejoin:round">
      <path
         d="M 8.2133758,7.2513565 C 8.2737172,7.1407306 8.2536034,6.8088529 8.1530344,6.7082839 8.1027499,6.6680563 7.9720102,6.6378856 7.9116688,6.597658 7.8010429,6.5574304 7.7306446,6.5373166 7.6200187,6.5373166 7.38871,6.5272597 7.1775151,6.4568614 6.9663202,6.4266907 c -0.2111949,-0.030171 -0.4223898,0 -0.6335847,-0.030171 -0.2111949,-0.010057 -0.4324467,0 -0.6436416,0.030171 -0.1810242,0.030171 -0.3519915,0 -0.502845,0.1307397 C 5.0454523,6.698227 5.0253385,6.9194788 4.975054,7.1206168 4.874485,7.3921531 4.773916,7.6335187 4.773916,7.9151119 c 0,0.301707 0.010057,0.5933571 -0.040228,0.8950641 -0.050285,0.2514225 0.010057,0.5229588 0,0.7944951 0,0.1206828 -0.060341,0.2514225 -0.060341,0.3821622 0,0.1407967 0.030171,0.2614797 0.030171,0.3922187 0,0.281594 0.010057,0.55313 0,0.824666 0,0.251423 0.080455,0.502845 0.080455,0.774381 0.020114,0.231309 0.030171,0.452561 0.070398,0.68387 0.030171,0.191081 0.1709673,0.311764 0.2815932,0.462617 0.070398,0.100569 0.201138,0.201138 0.3318777,0.16091 0.1106259,-0.03017 0.1508535,-0.201138 0.1810242,-0.301707 0.060341,-0.140796 0.020114,-0.181024 -0.010057,-0.32182 -0.060341,-0.221252 -0.060341,-0.432447 -0.050285,-0.643642 0.020114,-0.392219 -0.1106259,-0.764324 -0.090512,-1.156543 0,-0.140797 0,-0.271537 0,-0.412333 0.2413656,0.01006 0.502845,-0.01006 0.703983,-0.01006 0.4425036,0 1.1163159,-0.03017 1.4280798,-0.382162 C 7.7407015,9.9264919 7.8010429,9.7253539 7.7306446,9.5745004 7.6300756,9.3633055 7.3786531,9.4538176 7.1976289,9.4538176 6.7953529,9.4739314 6.4031338,9.514159 6.0008578,9.514159 5.8198336,9.514159 5.6488663,9.5041021 5.477899,9.4839883 5.4980128,9.2325658 5.5181266,8.9811433 5.5080697,8.709607 5.4980128,8.4481276 5.5181266,8.1967051 5.5684111,7.9553395 5.578468,7.7843722 5.6186956,7.502779 5.779606,7.40221 c 0.1106259,-0.080455 0.4223898,0 0.5631864,0 0.2313087,0 0.4425036,0 0.6637554,-0.020114 0.2111949,-0.020114 0.4425036,0.010057 0.6637554,0.010057 0.1609104,0 0.4726743,0.010057 0.5430726,-0.1407966 z"
         style="font-family:'Milk Mustache BB';-inkscape-font-specification:'Milk Mustache BB'"
         id="path291" />
      <path
         d="m 12.328945,12.752481 c 0.05029,-0.412333 -0.412333,-1.770015 -0.653698,-2.071722 -0.120683,-0.140796 -0.281593,-0.462617 -0.42239,-0.593357 -0.08046,-0.0704 -0.181024,-0.1005687 -0.261479,-0.170967 C 10.910922,9.8661505 10.860638,9.7957522 10.79024,9.7354108 10.558931,9.5644435 10.377907,9.4839883 10.136541,9.3431917 10.176769,9.2023951 10.156655,9.2727934 10.23711,9.1621675 10.327622,9.0314278 10.377907,8.910745 10.468419,8.7800053 10.649443,8.5386397 10.850581,8.2872172 11.021548,8.0458516 11.172402,7.8145429 11.37354,7.6335187 11.554564,7.4323807 11.695361,7.2614134 11.866328,7.1105599 11.936726,6.899365 11.976954,6.7686253 11.976954,6.5674873 11.8261,6.5272597 11.37354,6.3864631 11.001434,7.0099909 10.760069,7.2815272 10.6595,7.40221 10.568988,7.5430066 10.478476,7.6737463 10.307508,7.9251688 10.10637,8.1564775 9.94546,8.3978431 9.7543789,8.6794363 9.5130133,8.9308588 9.2917615,9.1923382 c 0,-0.2111949 -0.020114,-0.4324467 0,-0.6436416 C 9.3018184,8.307331 9.3319891,8.0559085 9.3219322,7.8145429 9.3018184,7.603348 9.3018184,7.4323807 9.2314201,7.2312427 9.2012494,7.1507875 9.1610218,7.0904461 9.1509649,7.0200478 9.1207942,6.9496495 9.1107373,6.899365 9.0604528,6.8289667 8.9598838,6.7283977 8.8492579,6.6378856 8.738632,6.7585684 8.638063,6.8490805 8.5374939,6.999934 8.5576077,7.1206168 c 0,0.1810242 0,0.3519915 0,0.5430726 0,0.2614794 0,0.5531295 -0.030171,0.8146089 -0.030171,0.2715363 -0.030171,0.5531295 -0.030171,0.8246658 -0.010057,0.2413656 -0.030171,0.4626174 -0.060341,0.7039829 -0.020114,0.211195 -0.050285,0.412333 -0.070398,0.623528 -0.010057,0.09051 -0.010057,0.170967 -0.010057,0.261479 0,0.08046 0.010057,0.170968 0.010057,0.26148 0,0.16091 -0.010057,0.824665 0.050285,0.975519 0.010057,0.09051 0.040228,0.16091 0.050285,0.241366 0.040228,0.170967 -0.010057,0.382162 0.100569,0.533015 0.080455,0.110626 0.2514226,0.211195 0.3821623,0.251423 0.2413656,0.05028 0.4525605,-0.331878 0.3922191,-0.522959 -0.090512,-0.402276 -0.1508535,-0.854837 -0.1609104,-1.267169 0,-0.301707 0,-0.603414 0,-0.915178 0,-0.140797 0.010057,-0.271537 0.040228,-0.392219 0.100569,0.04023 0.2111949,0.0704 0.3117639,0.120682 0.1810242,0.09051 0.3519915,0.231309 0.5028449,0.351992 0.120683,0.100569 0.241366,0.16091 0.362048,0.261479 0.120683,0.08046 0.191082,0.170968 0.291651,0.281593 0.100569,0.110626 0.211194,0.221252 0.311763,0.341935 0.201138,0.221252 0.573244,1.216885 0.68387,1.528649 0.05028,0.170967 0.191081,0.150853 0.362048,0.110626 0.211195,-0.0704 0.241366,-0.08046 0.281593,-0.301707 z"
         style="font-family:'Milk Mustache BB';-inkscape-font-specification:'Milk Mustache BB'"
         id="path293" />
    </g>
  </g>
</svg>
